# xmcd
#
# Track frame offsets:
#	150
#	15820
#	35263
#	53000
#	69957
#	84835
#	105257
#	123685
#	140867
#	154820
#	172581
#	189340
#	208850
#
# Disc length: 3078 seconds
#
# Revision: 1
# Processed by: cddbd v1.5.2PL0 Copyright (c) Steve Scherf et al.
# Submitted via: audiograbber 1.83.01
#
DISCID=990c040d
DTITLE=Tim McGraw - Sundown Heaven Town
DYEAR=2014
DGENRE=Country
TTITLE0=Overrated
TTITLE1=City Lights
TTITLE2=Shotgun Rider
TTITLE3=Dust
TTITLE4=Diamond Rings And Old Barstools (w. Catherine Dunn)
TTITLE5=Words Are Medicine
TTITLE6=Sick Of Me
TTITLE7=Meanwhile Back At Mama's (f. Faith Hill)
TTITLE8=Keep On Truckin'
TTITLE9=Last Turn Home
TTITLE10=Portland, Maine
TTITLE11=Lookin' For That Girl
TTITLE12=Still On The Line
EXTD=
EXTT0=
EXTT1=
EXTT2=
EXTT3=
EXTT4=
EXTT5=
EXTT6=
EXTT7=
EXTT8=
EXTT9=
EXTT10=
EXTT11=
EXTT12=
PLAYORDER=
